<svg width="24" height="24" viewBox="0 0 24 24" fill="none" xmlns="http://www.w3.org/2000/svg">
<g clip-path="url(#clip0_8_517)">
<path d="M9 14.625C9.62132 14.625 10.125 14.1213 10.125 13.5C10.125 12.8787 9.62132 12.375 9 12.375C8.37868 12.375 7.875 12.8787 7.875 13.5C7.875 14.1213 8.37868 14.625 9 14.625Z" fill="white"/>
<path d="M15 14.625C15.6213 14.625 16.125 14.1213 16.125 13.5C16.125 12.8787 15.6213 12.375 15 12.375C14.3787 12.375 13.875 12.8787 13.875 13.5C13.875 14.1213 14.3787 14.625 15 14.625Z" fill="white"/>
<path d="M6.9751 7.50002C8.60096 6.99046 10.2963 6.73742 12.0001 6.75002C13.7039 6.73742 15.3992 6.99046 17.0251 7.50002" stroke="white" stroke-width="1.5" stroke-linecap="round" stroke-linejoin="round"/>
<path d="M17.0251 16.5C15.3992 17.0096 13.7039 17.2626 12.0001 17.25C10.2963 17.2626 8.60096 17.0096 6.9751 16.5" stroke="white" stroke-width="1.5" stroke-linecap="round" stroke-linejoin="round"/>
<path d="M14.5312 17.0719L15.6655 19.3219C15.7385 19.4753 15.8627 19.5986 16.0166 19.6704C16.1706 19.7423 16.3448 19.7583 16.5093 19.7157C18.8062 19.1532 20.7937 18.1782 22.2374 16.9219C22.3462 16.8259 22.4253 16.7007 22.4652 16.5611C22.505 16.4215 22.5041 16.2734 22.4624 16.1344L19.2843 5.5219C19.2533 5.4133 19.1974 5.31346 19.1208 5.23042C19.0443 5.14738 18.9494 5.08346 18.8437 5.04378C17.9458 4.67541 17.0172 4.38679 16.0687 4.18128C15.8864 4.14136 15.6958 4.16995 15.5332 4.2616C15.3707 4.35324 15.2476 4.50153 15.1874 4.67815L14.4468 6.91878" stroke="white" stroke-width="1.5" stroke-linecap="round" stroke-linejoin="round"/>
<path d="M9.46885 17.0719L8.33447 19.3219C8.26148 19.4753 8.13734 19.5986 7.98337 19.6704C7.8294 19.7423 7.65521 19.7583 7.49072 19.7157C5.19385 19.1532 3.20635 18.1782 1.7626 16.9219C1.65375 16.8259 1.57471 16.7007 1.53483 16.5611C1.49496 16.4215 1.49592 16.2734 1.5376 16.1344L4.71572 5.5219C4.74665 5.4133 4.80263 5.31346 4.87916 5.23042C4.95568 5.14738 5.05063 5.08346 5.15635 5.04378C6.05425 4.67541 6.98283 4.38679 7.93135 4.18128C8.11363 4.14136 8.30422 4.16995 8.46677 4.2616C8.62931 4.35324 8.75242 4.50153 8.8126 4.67815L9.55322 6.91878" stroke="white" stroke-width="1.5" stroke-linecap="round" stroke-linejoin="round"/>
<path d="M9 14.625C9.62132 14.625 10.125 14.1213 10.125 13.5C10.125 12.8787 9.62132 12.375 9 12.375C8.37868 12.375 7.875 12.8787 7.875 13.5C7.875 14.1213 8.37868 14.625 9 14.625Z" fill="white"/>
<path d="M15 14.625C15.6213 14.625 16.125 14.1213 16.125 13.5C16.125 12.8787 15.6213 12.375 15 12.375C14.3787 12.375 13.875 12.8787 13.875 13.5C13.875 14.1213 14.3787 14.625 15 14.625Z" fill="white"/>
<path d="M6.9751 7.50002C8.60096 6.99046 10.2963 6.73742 12.0001 6.75002C13.7039 6.73742 15.3992 6.99046 17.0251 7.50002" stroke="white" stroke-width="1.5" stroke-linecap="round" stroke-linejoin="round"/>
<path d="M17.0251 16.5C15.3992 17.0096 13.7039 17.2626 12.0001 17.25C10.2963 17.2626 8.60096 17.0096 6.9751 16.5" stroke="white" stroke-width="1.5" stroke-linecap="round" stroke-linejoin="round"/>
<path d="M14.5312 17.0719L15.6655 19.3219C15.7385 19.4753 15.8627 19.5986 16.0166 19.6704C16.1706 19.7423 16.3448 19.7583 16.5093 19.7157C18.8062 19.1532 20.7937 18.1782 22.2374 16.9219C22.3462 16.8259 22.4253 16.7007 22.4652 16.5611C22.505 16.4215 22.5041 16.2734 22.4624 16.1344L19.2843 5.5219C19.2533 5.4133 19.1974 5.31346 19.1208 5.23042C19.0443 5.14738 18.9494 5.08346 18.8437 5.04378C17.9458 4.67541 17.0172 4.38679 16.0687 4.18128C15.8864 4.14136 15.6958 4.16995 15.5332 4.2616C15.3707 4.35324 15.2476 4.50153 15.1874 4.67815L14.4468 6.91878" stroke="white" stroke-width="1.5" stroke-linecap="round" stroke-linejoin="round"/>
<path d="M9.46885 17.0719L8.33447 19.3219C8.26148 19.4753 8.13734 19.5986 7.98337 19.6704C7.8294 19.7423 7.65521 19.7583 7.49072 19.7157C5.19385 19.1532 3.20635 18.1782 1.7626 16.9219C1.65375 16.8259 1.57471 16.7007 1.53483 16.5611C1.49496 16.4215 1.49592 16.2734 1.5376 16.1344L4.71572 5.5219C4.74665 5.4133 4.80263 5.31346 4.87916 5.23042C4.95568 5.14738 5.05063 5.08346 5.15635 5.04378C6.05425 4.67541 6.98283 4.38679 7.93135 4.18128C8.11363 4.14136 8.30422 4.16995 8.46677 4.2616C8.62931 4.35324 8.75242 4.50153 8.8126 4.67815L9.55322 6.91878" stroke="white" stroke-width="1.5" stroke-linecap="round" stroke-linejoin="round"/>
</g>
<defs>
<clipPath id="clip0_8_517">
<rect width="24" height="24" fill="white"/>
</clipPath>
</defs>
</svg>
