<svg width="40" height="40" viewBox="0 0 40 40" fill="none" xmlns="http://www.w3.org/2000/svg">
<path d="M33.7093 7.5H6.24239C5.55287 7.5 4.9939 8.05964 4.9939 8.75V31.25C4.9939 31.9404 5.55287 32.5 6.24239 32.5H33.7093C34.3988 32.5 34.9578 31.9404 34.9578 31.25V8.75C34.9578 8.05964 34.3988 7.5 33.7093 7.5Z" stroke="white" stroke-width="2.5" stroke-linecap="round" stroke-linejoin="round"/>
<path d="M4.9939 26.25L12.8438 18.3906C12.96 18.2725 13.0985 18.1787 13.2512 18.1147C13.4039 18.0507 13.5678 18.0177 13.7334 18.0177C13.8989 18.0177 14.0628 18.0507 14.2156 18.1147C14.3683 18.1787 14.5068 18.2725 14.6229 18.3906L21.5833 25.3594C21.6995 25.4775 21.8379 25.5713 21.9907 25.6353C22.1434 25.6993 22.3073 25.7323 22.4728 25.7323C22.6384 25.7323 22.8023 25.6993 22.955 25.6353C23.1078 25.5713 23.2462 25.4775 23.3624 25.3594L26.5773 22.1406C26.6935 22.0225 26.8319 21.9287 26.9846 21.8647C27.1374 21.8007 27.3013 21.7677 27.4668 21.7677C27.6324 21.7677 27.7963 21.8007 27.949 21.8647C28.1017 21.9287 28.2402 22.0225 28.3564 22.1406L34.9578 28.75" stroke="white" stroke-width="2.5" stroke-linecap="round" stroke-linejoin="round"/>
<path d="M24.3456 17.5C25.3799 17.5 26.2184 16.6605 26.2184 15.625C26.2184 14.5895 25.3799 13.75 24.3456 13.75C23.3114 13.75 22.4729 14.5895 22.4729 15.625C22.4729 16.6605 23.3114 17.5 24.3456 17.5Z" fill="white"/>
</svg>
